<svg version="1.1" id="Layer_1" xmlns="http://www.w3.org/2000/svg" xmlns:xlink="http://www.w3.org/1999/xlink" x="0px" y="0px"
	 width="100%" viewBox="0 0 1058 402" enable-background="new 0 0 1058 402" xml:space="preserve">
<path fill="#FAECEC" opacity="1.000000" stroke="none" 
	d="
M731.000000,403.000000 
	C487.333344,403.000000 244.166672,403.000000 1.000000,403.000000 
	C1.000000,269.000000 1.000000,135.000000 1.000000,1.000000 
	C353.666656,1.000000 706.333313,1.000000 1059.000000,1.000000 
	C1059.000000,135.000000 1059.000000,269.000000 1059.000000,403.000000 
	C949.833313,403.000000 840.666687,403.000000 731.000000,403.000000 
M845.293823,135.860382 
	C821.499939,148.293716 797.706055,160.727036 773.476868,173.387848 
	C781.575134,177.821411 789.003845,182.153091 796.684998,185.977982 
	C800.333008,187.794540 801.679443,190.003967 801.565125,194.091995 
	C801.271912,204.580124 801.475769,215.081924 801.464478,225.578232 
	C801.455322,234.110672 800.273315,235.849045 792.541504,238.861984 
	C792.541504,241.772171 792.541504,244.657318 792.541504,248.000854 
	C795.206665,247.305756 797.481384,246.911606 799.609680,246.122513 
	C808.267822,242.912247 810.795898,235.900726 810.829102,227.480484 
	C810.871643,216.701324 810.839478,205.921875 810.839478,194.409790 
	C812.923950,195.368729 814.391174,195.996536 815.817261,196.707062 
	C830.080383,203.813919 844.295776,211.019424 858.649292,217.938553 
	C860.357361,218.761902 863.194031,218.788589 864.858215,217.928375 
	C893.184387,203.286362 921.407898,188.445770 949.948975,173.494507 
	C948.431335,172.620941 947.174500,171.840439 945.868286,171.154022 
	C922.589539,158.920593 898.972778,147.277954 876.172974,134.209625 
	C866.027344,128.394348 857.461182,126.429924 848.039612,134.169846 
	C847.407104,134.689423 846.610229,135.008896 845.293823,135.860382 
M546.004150,203.547333 
	C546.004150,200.473816 546.004150,197.400314 546.004150,194.533508 
	C556.561401,194.533508 566.302917,194.533508 576.500977,194.533508 
	C576.500977,203.821304 576.500977,212.759872 576.500977,221.901001 
	C583.193726,221.901001 589.415344,221.901001 595.793701,221.901001 
	C595.793701,196.900574 595.793701,172.171127 595.793701,147.244843 
	C589.357849,147.244843 583.133301,147.244843 576.424133,147.244843 
	C576.424133,156.891937 576.424133,166.299072 576.424133,175.855743 
	C566.060730,175.855743 556.185364,175.855743 545.897095,175.855743 
	C545.897095,166.147614 545.897095,156.737244 545.897095,147.231995 
	C539.400330,147.231995 533.321777,147.231995 527.210083,147.231995 
	C527.210083,172.311920 527.210083,197.153809 527.210083,221.817230 
	C533.662842,221.817230 539.727844,221.817230 546.004150,221.817230 
	C546.004150,215.820282 546.004150,210.176193 546.004150,203.547333 
M163.777206,208.264252 
	C168.033905,203.031509 170.704391,197.159500 171.300903,190.159683 
	C164.719421,190.159683 158.432877,190.159683 152.934113,190.159683 
	C149.997116,193.936783 147.866943,197.836823 144.704544,200.520493 
	C136.035751,207.877029 122.635765,206.125793 115.985298,197.253906 
	C108.607979,187.412369 110.734856,174.479782 120.860016,167.612930 
	C130.210892,161.271179 142.953934,164.025696 149.304916,173.661621 
	C150.126297,174.907837 151.456390,176.639359 152.624435,176.698761 
	C158.658524,177.005630 164.716583,176.841293 170.870804,176.841293 
	C166.700012,153.606461 141.095856,139.899200 118.193512,148.043289 
	C93.952415,156.663452 84.171890,187.044113 99.209206,206.947433 
	C115.895515,229.033386 147.089539,229.040833 163.777206,208.264252 
M316.417938,168.957321 
	C305.308044,164.034805 295.203430,164.728165 286.794983,174.611099 
	C280.339600,166.887619 272.799438,163.840897 263.303192,167.812119 
	C262.708832,168.060669 261.711914,168.440475 261.431396,168.182922 
	C256.577942,163.726700 251.014755,167.356094 245.784027,166.075821 
	C245.784027,185.104645 245.784027,203.480026 245.784027,221.879211 
	C251.013046,221.879211 255.902908,221.879211 261.012512,221.879211 
	C261.012512,212.750366 260.770416,203.923111 261.136261,195.121094 
	C261.275177,191.778610 262.264496,188.203842 263.830963,185.245834 
	C266.802582,179.634415 273.150970,179.103760 276.792511,184.216263 
	C278.580414,186.726334 279.722198,190.204102 279.846985,193.296768 
	C280.232269,202.844040 279.987610,212.416718 279.987610,221.831924 
	C285.063629,221.831924 289.448792,221.831924 294.012207,221.831924 
	C294.012207,212.154327 293.941284,202.835159 294.060028,193.518387 
	C294.091339,191.060455 294.082489,188.252548 295.224915,186.252380 
	C296.472992,184.067337 298.916595,181.403183 301.056213,181.196579 
	C303.486969,180.961868 307.097870,182.562347 308.487274,184.555847 
	C310.228882,187.054596 310.782654,190.746643 310.883942,193.954132 
	C311.177368,203.245651 310.987762,212.552414 310.987762,221.894897 
	C316.442749,221.894897 321.528015,221.894897 326.542480,221.894897 
	C326.542480,210.622040 326.748749,199.641754 326.472351,188.673630 
	C326.277191,180.928635 323.759064,174.010376 316.417938,168.957321 
M696.582458,166.004044 
	C692.441467,166.832947 688.300476,167.661850 683.768738,168.568985 
	C683.768738,161.388702 683.768738,154.299332 683.768738,147.226959 
	C678.621155,147.226959 673.864319,147.226959 668.976685,147.226959 
	C668.976685,172.325394 668.976685,197.186508 668.976685,222.177307 
	C673.817566,222.177307 679.020813,223.681976 682.243469,221.798248 
	C686.315369,219.418137 689.080383,221.277557 692.390076,221.793488 
	C706.464600,223.987595 720.737122,216.227875 725.108459,203.931274 
	C731.877747,184.889297 718.777161,166.886765 696.582458,166.004044 
M338.780579,239.856277 
	C342.367340,239.856277 345.954071,239.856277 349.931824,239.856277 
	C349.931824,232.509659 349.931824,225.935883 349.931824,219.002487 
	C351.976562,219.625641 353.540009,220.121078 355.114349,220.578949 
	C368.418579,224.448151 382.981171,218.584396 389.324615,206.810501 
	C394.509216,197.187531 393.676697,184.992203 387.286621,177.256989 
	C378.963745,167.182190 368.392090,163.746994 355.707550,166.622726 
	C354.113373,166.984131 352.486115,167.913147 350.963806,167.748825 
	C345.637329,167.173843 340.350159,166.235123 334.439941,165.342743 
	C334.439941,173.581680 334.439911,180.538696 334.439941,187.495697 
	C334.440033,203.482407 334.451599,219.469131 334.427917,235.455811 
	C334.424316,237.885193 334.183685,240.371597 338.780579,239.856277 
M222.034363,220.264709 
	C222.621643,220.897415 223.191254,222.058411 223.799026,222.078735 
	C228.400940,222.232590 233.010330,222.162827 237.372650,222.162827 
	C237.372650,203.359360 237.372650,185.118073 237.372650,166.446121 
	C235.263535,166.446121 233.553329,166.130127 232.015030,166.510101 
	C228.514664,167.374710 224.983536,165.165039 221.094604,168.296951 
	C219.097412,169.905365 213.398224,166.155014 209.370087,166.149261 
	C198.180862,166.133301 189.044434,170.589584 183.268005,180.580933 
	C177.802429,190.034637 178.133301,199.465942 183.855865,208.749817 
	C191.494400,221.142059 205.936737,225.274811 222.034363,220.264709 
M413.327637,166.147385 
	C409.201355,166.147385 405.075073,166.147385 400.443848,166.147385 
	C400.443848,170.511032 400.356598,174.471786 400.462463,178.427383 
	C400.667053,186.070404 400.031738,193.891052 401.444427,201.314590 
	C404.476868,217.249710 420.832275,225.965454 437.390259,221.343353 
	C438.652252,220.991058 439.979828,220.272842 441.186798,220.427567 
	C446.625092,221.124695 452.030884,222.075333 457.442200,222.933609 
	C457.442200,203.207169 457.442200,184.818420 457.442200,166.458405 
	C451.617645,166.458405 446.209900,166.458405 440.443451,166.458405 
	C440.443451,175.731247 440.501373,184.697861 440.426208,193.663345 
	C440.358948,201.687836 436.435791,205.832047 429.144714,205.800629 
	C421.780243,205.768906 418.103546,201.783844 418.030701,193.557770 
	C417.959900,185.564728 417.878510,177.567062 418.083618,169.578659 
	C418.162201,166.518005 416.903534,165.785522 413.327637,166.147385 
M482.660797,167.108444 
	C481.545227,167.412247 480.397369,167.629791 479.319366,168.033859 
	C472.422791,170.618927 466.799103,174.414246 466.187347,182.623627 
	C465.734894,188.695709 470.041626,194.475754 477.920807,197.697159 
	C483.127838,199.826050 488.631805,201.217682 493.933777,203.130768 
	C496.010620,203.880157 497.898804,205.152390 500.702179,206.620911 
	C491.074341,211.043671 484.711884,209.032761 482.200012,202.055634 
	C476.683563,202.055634 471.231598,202.055634 465.794037,202.055634 
	C465.553802,209.443588 466.749725,212.479019 471.321655,216.358337 
	C480.140594,223.841141 503.788574,224.307968 512.952637,217.180161 
	C520.497742,211.311584 521.362854,201.550232 513.750061,195.987030 
	C508.159546,191.901703 501.193573,189.674622 494.782776,186.746002 
	C491.638916,185.309814 488.363556,184.161438 484.519653,182.633102 
	C492.015564,177.323029 498.509338,179.251328 501.142120,186.307434 
	C506.754395,186.307434 512.277344,186.307434 517.912598,186.307434 
	C518.337158,179.145187 515.652405,174.194427 509.989197,170.848434 
	C501.697174,165.949280 492.777130,165.207428 482.660797,167.108444 
M889.530579,217.165909 
	C882.405701,220.750275 875.221924,224.223663 868.178040,227.960663 
	C863.954224,230.201508 860.223755,230.691772 855.801025,227.991470 
	C850.729553,224.895111 845.116821,222.686249 839.742554,220.084885 
	C833.358704,216.994812 826.978455,213.897324 819.989929,210.508881 
	C819.989929,214.817520 820.403992,218.478378 819.909607,222.012131 
	C818.601501,231.361954 823.064514,237.150894 830.857971,241.176086 
	C840.425232,246.117355 849.964172,251.114059 859.571472,255.975937 
	C860.594421,256.493591 862.189270,256.737823 863.186157,256.318390 
	C873.583069,251.944122 883.968384,247.532059 894.235352,242.863159 
	C899.174255,240.617172 902.699707,236.571472 903.161743,231.124496 
	C903.715088,224.600830 903.292419,217.994370 903.292419,210.805634 
	C898.567261,213.006897 894.399231,214.948639 889.530579,217.165909 
M621.007202,171.647308 
	C621.007202,169.897247 621.007202,168.147186 621.007202,166.510345 
	C614.862915,166.510345 609.456177,166.510345 603.822998,166.510345 
	C603.822998,175.514999 604.077759,184.176529 603.772278,192.818253 
	C603.039368,213.551559 619.019287,226.455566 641.364197,221.040207 
	C642.438782,220.779770 643.584045,220.395538 644.636841,220.531113 
	C649.910034,221.210037 655.163452,222.043137 660.548096,222.840454 
	C660.548096,203.156815 660.548096,184.913589 660.548096,166.485886 
	C654.864624,166.485886 649.478638,166.485886 643.470886,166.485886 
	C643.470886,176.118362 643.735291,185.434357 643.387817,194.727448 
	C643.106079,202.262604 639.033508,205.923325 632.157715,205.821701 
	C624.870728,205.713989 621.156250,201.895905 621.032166,194.097305 
	C620.918213,186.937683 621.007507,179.774857 621.007202,171.647308 
z"/>
<path fill="#632319" opacity="1.000000" stroke="none" 
	d="
M845.591797,135.640930 
	C846.610229,135.008896 847.407104,134.689423 848.039612,134.169846 
	C857.461182,126.429924 866.027344,128.394348 876.172974,134.209625 
	C898.972778,147.277954 922.589539,158.920593 945.868286,171.154022 
	C947.174500,171.840439 948.431335,172.620941 949.948975,173.494507 
	C921.407898,188.445770 893.184387,203.286362 864.858215,217.928375 
	C863.194031,218.788589 860.357361,218.761902 858.649292,217.938553 
	C844.295776,211.019424 830.080383,203.813919 815.817261,196.707062 
	C814.391174,195.996536 812.923950,195.368729 810.839478,194.409790 
	C810.839478,205.921875 810.871643,216.701324 810.829102,227.480484 
	C810.795898,235.900726 808.267822,242.912247 799.609680,246.122513 
	C797.481384,246.911606 795.206665,247.305756 792.541504,248.000854 
	C792.541504,244.657318 792.541504,241.772171 792.541504,238.861984 
	C800.273315,235.849045 801.455322,234.110672 801.464478,225.578232 
	C801.475769,215.081924 801.271912,204.580124 801.565125,194.091995 
	C801.679443,190.003967 800.333008,187.794540 796.684998,185.977982 
	C789.003845,182.153091 781.575134,177.821411 773.476868,173.387848 
	C797.706055,160.727036 821.499939,148.293716 845.591797,135.640930 
z"/>
<path fill="#632218" opacity="1.000000" stroke="none" 
	d="
M546.004150,204.039703 
	C546.004150,210.176193 546.004150,215.820282 546.004150,221.817230 
	C539.727844,221.817230 533.662842,221.817230 527.210083,221.817230 
	C527.210083,197.153809 527.210083,172.311920 527.210083,147.231995 
	C533.321777,147.231995 539.400330,147.231995 545.897095,147.231995 
	C545.897095,156.737244 545.897095,166.147614 545.897095,175.855743 
	C556.185364,175.855743 566.060730,175.855743 576.424133,175.855743 
	C576.424133,166.299072 576.424133,156.891937 576.424133,147.244843 
	C583.133301,147.244843 589.357849,147.244843 595.793701,147.244843 
	C595.793701,172.171127 595.793701,196.900574 595.793701,221.901001 
	C589.415344,221.901001 583.193726,221.901001 576.500977,221.901001 
	C576.500977,212.759872 576.500977,203.821304 576.500977,194.533508 
	C566.302917,194.533508 556.561401,194.533508 546.004150,194.533508 
	C546.004150,197.400314 546.004150,200.473816 546.004150,204.039703 
z"/>
<path fill="#64241B" opacity="1.000000" stroke="none" 
	d="
M163.535889,208.529800 
	C147.089539,229.040833 115.895515,229.033386 99.209206,206.947433 
	C84.171890,187.044113 93.952415,156.663452 118.193512,148.043289 
	C141.095856,139.899200 166.700012,153.606461 170.870804,176.841293 
	C164.716583,176.841293 158.658524,177.005630 152.624435,176.698761 
	C151.456390,176.639359 150.126297,174.907837 149.304916,173.661621 
	C142.953934,164.025696 130.210892,161.271179 120.860016,167.612930 
	C110.734856,174.479782 108.607979,187.412369 115.985298,197.253906 
	C122.635765,206.125793 136.035751,207.877029 144.704544,200.520493 
	C147.866943,197.836823 149.997116,193.936783 152.934113,190.159683 
	C158.432877,190.159683 164.719421,190.159683 171.300903,190.159683 
	C170.704391,197.159500 168.033905,203.031509 163.535889,208.529800 
z"/>
<path fill="#65251B" opacity="1.000000" stroke="none" 
	d="
M316.761047,169.096375 
	C323.759064,174.010376 326.277191,180.928635 326.472351,188.673630 
	C326.748749,199.641754 326.542480,210.622040 326.542480,221.894897 
	C321.528015,221.894897 316.442749,221.894897 310.987762,221.894897 
	C310.987762,212.552414 311.177368,203.245651 310.883942,193.954132 
	C310.782654,190.746643 310.228882,187.054596 308.487274,184.555847 
	C307.097870,182.562347 303.486969,180.961868 301.056213,181.196579 
	C298.916595,181.403183 296.472992,184.067337 295.224915,186.252380 
	C294.082489,188.252548 294.091339,191.060455 294.060028,193.518387 
	C293.941284,202.835159 294.012207,212.154327 294.012207,221.831924 
	C289.448792,221.831924 285.063629,221.831924 279.987610,221.831924 
	C279.987610,212.416718 280.232269,202.844040 279.846985,193.296768 
	C279.722198,190.204102 278.580414,186.726334 276.792511,184.216263 
	C273.150970,179.103760 266.802582,179.634415 263.830963,185.245834 
	C262.264496,188.203842 261.275177,191.778610 261.136261,195.121094 
	C260.770416,203.923111 261.012512,212.750366 261.012512,221.879211 
	C255.902908,221.879211 251.013046,221.879211 245.784027,221.879211 
	C245.784027,203.480026 245.784027,185.104645 245.784027,166.075821 
	C251.014755,167.356094 256.577942,163.726700 261.431396,168.182922 
	C261.711914,168.440475 262.708832,168.060669 263.303192,167.812119 
	C272.799438,163.840897 280.339600,166.887619 286.794983,174.611099 
	C295.203430,164.728165 305.308044,164.034805 316.761047,169.096375 
z"/>
<path fill="#64241B" opacity="1.000000" stroke="none" 
	d="
M697.041199,165.998169 
	C718.777161,166.886765 731.877747,184.889297 725.108459,203.931274 
	C720.737122,216.227875 706.464600,223.987595 692.390076,221.793488 
	C689.080383,221.277557 686.315369,219.418137 682.243469,221.798248 
	C679.020813,223.681976 673.817566,222.177307 668.976685,222.177307 
	C668.976685,197.186508 668.976685,172.325394 668.976685,147.226959 
	C673.864319,147.226959 678.621155,147.226959 683.768738,147.226959 
	C683.768738,154.299332 683.768738,161.388702 683.768738,168.568985 
	C688.300476,167.661850 692.441467,166.832947 697.041199,165.998169 
M710.498901,198.460922 
	C712.239258,192.599106 710.946167,187.451950 706.192139,183.650528 
	C702.171997,180.435883 697.405273,179.761398 692.560913,181.804840 
	C687.024475,184.140213 683.547974,189.917221 684.214111,195.280273 
	C684.974792,201.404846 689.403992,206.216263 695.214722,207.230179 
	C701.812256,208.381393 706.811279,205.674591 710.498901,198.460922 
z"/>
<path fill="#66271D" opacity="1.000000" stroke="none" 
	d="
M338.325348,239.856049 
	C334.183685,240.371597 334.424316,237.885193 334.427917,235.455811 
	C334.451599,219.469131 334.440033,203.482407 334.439941,187.495697 
	C334.439911,180.538696 334.439941,173.581680 334.439941,165.342743 
	C340.350159,166.235123 345.637329,167.173843 350.963806,167.748825 
	C352.486115,167.913147 354.113373,166.984131 355.707550,166.622726 
	C368.392090,163.746994 378.963745,167.182190 387.286621,177.256989 
	C393.676697,184.992203 394.509216,197.187531 389.324615,206.810501 
	C382.981171,218.584396 368.418579,224.448151 355.114349,220.578949 
	C353.540009,220.121078 351.976562,219.625641 349.931824,219.002487 
	C349.931824,225.935883 349.931824,232.509659 349.931824,239.856277 
	C345.954071,239.856277 342.367340,239.856277 338.325348,239.856049 
M355.524475,182.852722 
	C350.807648,186.669769 349.107147,191.459015 350.728027,197.390289 
	C352.202637,202.786377 356.028229,205.766907 361.164581,206.838257 
	C366.683777,207.989456 371.266296,205.888428 374.618896,201.340683 
	C378.241547,196.426697 377.866547,189.738358 373.776001,184.894669 
	C369.657166,180.017456 363.298889,179.124039 355.524475,182.852722 
z"/>
<path fill="#65251C" opacity="1.000000" stroke="none" 
	d="
M221.816055,219.892700 
	C205.936737,225.274811 191.494400,221.142059 183.855865,208.749817 
	C178.133301,199.465942 177.802429,190.034637 183.268005,180.580933 
	C189.044434,170.589584 198.180862,166.133301 209.370087,166.149261 
	C213.398224,166.155014 219.097412,169.905365 221.094604,168.296951 
	C224.983536,165.165039 228.514664,167.374710 232.015030,166.510101 
	C233.553329,166.130127 235.263535,166.446121 237.372650,166.446121 
	C237.372650,185.118073 237.372650,203.359360 237.372650,222.162827 
	C233.010330,222.162827 228.400940,222.232590 223.799026,222.078735 
	C223.191254,222.058411 222.621643,220.897415 221.816055,219.892700 
M214.276855,206.296555 
	C220.717697,202.550461 223.554108,196.567169 221.743927,190.545120 
	C219.892380,184.385468 214.382019,180.587631 207.694061,180.861694 
	C201.700653,181.107285 196.601395,185.679337 195.338272,191.940048 
	C193.314377,201.971527 201.990158,209.005722 214.276855,206.296555 
z"/>
<path fill="#65261C" opacity="1.000000" stroke="none" 
	d="
M413.802155,166.147491 
	C416.903534,165.785522 418.162201,166.518005 418.083618,169.578659 
	C417.878510,177.567062 417.959900,185.564728 418.030701,193.557770 
	C418.103546,201.783844 421.780243,205.768906 429.144714,205.800629 
	C436.435791,205.832047 440.358948,201.687836 440.426208,193.663345 
	C440.501373,184.697861 440.443451,175.731247 440.443451,166.458405 
	C446.209900,166.458405 451.617645,166.458405 457.442200,166.458405 
	C457.442200,184.818420 457.442200,203.207169 457.442200,222.933609 
	C452.030884,222.075333 446.625092,221.124695 441.186798,220.427567 
	C439.979828,220.272842 438.652252,220.991058 437.390259,221.343353 
	C420.832275,225.965454 404.476868,217.249710 401.444427,201.314590 
	C400.031738,193.891052 400.667053,186.070404 400.462463,178.427383 
	C400.356598,174.471786 400.443848,170.511032 400.443848,166.147385 
	C405.075073,166.147385 409.201355,166.147385 413.802155,166.147491 
z"/>
<path fill="#65261C" opacity="1.000000" stroke="none" 
	d="
M483.080505,167.046478 
	C492.777130,165.207428 501.697174,165.949280 509.989197,170.848434 
	C515.652405,174.194427 518.337158,179.145187 517.912598,186.307434 
	C512.277344,186.307434 506.754395,186.307434 501.142120,186.307434 
	C498.509338,179.251328 492.015564,177.323029 484.519653,182.633102 
	C488.363556,184.161438 491.638916,185.309814 494.782776,186.746002 
	C501.193573,189.674622 508.159546,191.901703 513.750061,195.987030 
	C521.362854,201.550232 520.497742,211.311584 512.952637,217.180161 
	C503.788574,224.307968 480.140594,223.841141 471.321655,216.358337 
	C466.749725,212.479019 465.553802,209.443588 465.794037,202.055634 
	C471.231598,202.055634 476.683563,202.055634 482.200012,202.055634 
	C484.711884,209.032761 491.074341,211.043671 500.702179,206.620911 
	C497.898804,205.152390 496.010620,203.880157 493.933777,203.130768 
	C488.631805,201.217682 483.127838,199.826050 477.920807,197.697159 
	C470.041626,194.475754 465.734894,188.695709 466.187347,182.623627 
	C466.799103,174.414246 472.422791,170.618927 479.319366,168.033859 
	C480.397369,167.629791 481.545227,167.412247 483.080505,167.046478 
z"/>
<path fill="#65251B" opacity="1.000000" stroke="none" 
	d="
M889.880859,217.028137 
	C894.399231,214.948639 898.567261,213.006897 903.292419,210.805634 
	C903.292419,217.994370 903.715088,224.600830 903.161743,231.124496 
	C902.699707,236.571472 899.174255,240.617172 894.235352,242.863159 
	C883.968384,247.532059 873.583069,251.944122 863.186157,256.318390 
	C862.189270,256.737823 860.594421,256.493591 859.571472,255.975937 
	C849.964172,251.114059 840.425232,246.117355 830.857971,241.176086 
	C823.064514,237.150894 818.601501,231.361954 819.909607,222.012131 
	C820.403992,218.478378 819.989929,214.817520 819.989929,210.508881 
	C826.978455,213.897324 833.358704,216.994812 839.742554,220.084885 
	C845.116821,222.686249 850.729553,224.895111 855.801025,227.991470 
	C860.223755,230.691772 863.954224,230.201508 868.178040,227.960663 
	C875.221924,224.223663 882.405701,220.750275 889.880859,217.028137 
z"/>
<path fill="#64241A" opacity="1.000000" stroke="none" 
	d="
M621.007202,172.130371 
	C621.007507,179.774857 620.918213,186.937683 621.032166,194.097305 
	C621.156250,201.895905 624.870728,205.713989 632.157715,205.821701 
	C639.033508,205.923325 643.106079,202.262604 643.387817,194.727448 
	C643.735291,185.434357 643.470886,176.118362 643.470886,166.485886 
	C649.478638,166.485886 654.864624,166.485886 660.548096,166.485886 
	C660.548096,184.913589 660.548096,203.156815 660.548096,222.840454 
	C655.163452,222.043137 649.910034,221.210037 644.636841,220.531113 
	C643.584045,220.395538 642.438782,220.779770 641.364197,221.040207 
	C619.019287,226.455566 603.039368,213.551559 603.772278,192.818253 
	C604.077759,184.176529 603.822998,175.514999 603.822998,166.510345 
	C609.456177,166.510345 614.862915,166.510345 621.007202,166.510345 
	C621.007202,168.147186 621.007202,169.897247 621.007202,172.130371 
z"/>
<path fill="#F9ECEC" opacity="1.000000" stroke="none" 
	d="
M710.305542,198.812347 
	C706.811279,205.674591 701.812256,208.381393 695.214722,207.230179 
	C689.403992,206.216263 684.974792,201.404846 684.214111,195.280273 
	C683.547974,189.917221 687.024475,184.140213 692.560913,181.804840 
	C697.405273,179.761398 702.171997,180.435883 706.192139,183.650528 
	C710.946167,187.451950 712.239258,192.599106 710.305542,198.812347 
z"/>
<path fill="#F8EAEA" opacity="1.000000" stroke="none" 
	d="
M355.838440,182.635529 
	C363.298889,179.124039 369.657166,180.017456 373.776001,184.894669 
	C377.866547,189.738358 378.241547,196.426697 374.618896,201.340683 
	C371.266296,205.888428 366.683777,207.989456 361.164581,206.838257 
	C356.028229,205.766907 352.202637,202.786377 350.728027,197.390289 
	C349.107147,191.459015 350.807648,186.669769 355.838440,182.635529 
z"/>
<path fill="#F8EAEA" opacity="1.000000" stroke="none" 
	d="
M213.927063,206.512268 
	C201.990158,209.005722 193.314377,201.971527 195.338272,191.940048 
	C196.601395,185.679337 201.700653,181.107285 207.694061,180.861694 
	C214.382019,180.587631 219.892380,184.385468 221.743927,190.545120 
	C223.554108,196.567169 220.717697,202.550461 213.927063,206.512268 
z"/>
</svg>